<svg xmlns:inkscape="http://www.inkscape.org/namespaces/inkscape" xmlns:sodipodi="http://sodipodi.sourceforge.net/DTD/sodipodi-0.dtd" xmlns="http://www.w3.org/2000/svg" xmlns:svg="http://www.w3.org/2000/svg" xmlns:rdf="http://www.w3.org/1999/02/22-rdf-syntax-ns#" xmlns:cc="http://creativecommons.org/ns#" xmlns:dc="http://purl.org/dc/elements/1.1/" viewBox="0 0 10.583333 13.2291675" version="1.1" x="0px" y="0px"><g><path style="color:#000000;paint-order:stroke fill markers;" d="m 2.4769167,0.79811667 a 0.26460876,0.26460876 0 0 0 -4e-4,10e-5 c -0.7179,0 -1.3101,0.57900003 -1.31,1.29180003 a 0.26460876,0.26460876 0 0 0 0,7e-4 c 10e-5,0.041 0,0.082 0.01,0.1222 -0.22940003,0.1526 -0.38280003,0.4099 -0.38280003,0.7024 0,0.4135 0.30650003,0.7551 0.70120003,0.8336 -0.1997,0.4901 -0.3035,1.0154 -0.3035,1.5472 0,1.0874 0.432,2.1305 1.2009,2.8994 0.7689,0.7688 1.812,1.2009 2.8994,1.2009 0.07,0 0.1409,0 0.2112,-0.01 0.1582,0.2426 0.4368,0.4031 0.7474,0.4031 h 2.6545 c 0.4802,0 0.8848,-0.3832 0.8848,-0.8615 0,-0.3532 -0.2203,-0.655 -0.5293,-0.7881 -0.024,-0.3092 -0.2041,-0.5762 -0.46,-0.7268 0.3858,-0.638 0.5917,-1.3714 0.5917,-2.1215 0,-1.0873 -0.432,-2.1304 -1.2009,-2.8993 -0.7689,-0.7689 -1.812,-1.201 -2.8994,-1.201 -0.409,0 -0.8154,0.061 -1.2059,0.1816 -0.1165,-0.053 -0.2455,-0.082 -0.3807,-0.082 v 0 c -0.061,0 -0.1207,0.01 -0.1798,0.018 -0.2452,-0.32100003 -0.6311,-0.51490003 -1.0454,-0.51510003 z m 1e-4,0.52920003 v 0 c 0.2967,2e-4 0.5654,0.1639 0.6973,0.4203 a 0.26460876,0.26460876 0 0 0 0.35,0.1175 c 0.055,-0.026 0.1159,-0.04 0.1776,-0.04 0.2261,10e-5 0.3991,0.1728 0.3993,0.3872 -10e-5,0.024 0,0.048 -0.01,0.071 a 0.26460876,0.26460876 0 0 0 0.2266,0.3139 c 0.1752,0.022 0.2977,0.1557 0.2977,0.3182 0,0.1768 -0.144,0.3214 -0.345,0.3214 h -2.6089 c -0.2011,0 -0.3446,-0.1444 -0.3446,-0.3214 0,-0.1409 0.092,-0.2582 0.2305,-0.3032 a 0.26460876,0.26460876 0 0 0 0.1731,-0.3232 c -0.018,-0.065 -0.028,-0.1319 -0.028,-0.1992 0,-0.4216 0.344,-0.7624 0.781,-0.7624 a 0.26460876,0.26460876 0 0 0 3e-4,0 z m 2.8117,0.3976 c 0.3329,0 0.6609,0.047 0.9755,0.136 -0.1235,0.2188 -0.19,0.4676 -0.19,0.7232 0,0.8097 0.662,1.4717 1.4717,1.4717 0.3489,0 0.6821,-0.124 0.9438,-0.3426 0.2411,0.4876 0.3702,1.0285 0.3702,1.5828 0,0.7116 -0.2126,1.4057 -0.6088,1.9942 -0.039,0 -0.077,0.01 -0.1154,0.015 -0.2485,-0.3271 -0.6406,-0.5249 -1.0619,-0.5251 a 0.26460876,0.26460876 0 0 0 -10e-5,0 v 0 c -0.7283,-10e-5 -1.3287,0.5877 -1.3285,1.3111 a 0.26460876,0.26460876 0 0 0 0,7e-4 c 10e-5,0.043 0,0.085 0.01,0.127 -0.2159,0.1428 -0.3657,0.3773 -0.3869,0.6469 -0.026,6e-4 -0.051,9e-4 -0.077,9e-4 -0.9472,0 -1.8554,-0.3761 -2.5252,-1.0459 -0.4654,-0.4654 -0.7888,-1.0459 -0.943,-1.6746 0.5002,-0.07 0.8895,-0.5035 0.8895,-1.022 0,-0.4848 -0.3404,-0.8952 -0.7935,-1.0037 0.042,-0.1207 0.091,-0.2392 0.1459,-0.3551 h 2.211 c 0.4741,0 0.8741,-0.3782 0.8741,-0.8506 0,-0.3478 -0.2166,-0.6449 -0.5204,-0.7769 -0.01,-0.1233 -0.045,-0.2396 -0.1005,-0.3443 0.2486,-0.05 0.4996,-0.069 0.7621,-0.069 z m 1.4824,0.3225 c 0.3844,0.1753 0.7383,0.4189 1.0428,0.7235 0.1482,0.1482 0.282,0.3081 0.4006,0.4776 -0.1753,0.1765 -0.4151,0.2781 -0.6686,0.2781 -0.5237,0 -0.9426,-0.4188 -0.9426,-0.9425 0,-0.1933 0.059,-0.3802 0.1678,-0.5367 z m -2.7454,2.3348 c -0.1463,0 -0.2658,0.1256 -0.2658,0.2728 0,0.1495 0.1233,0.273 0.2728,0.273 0.1495,0 0.273,-0.1235 0.273,-0.273 0,-0.1495 -0.1235,-0.2728 -0.273,-0.2728 0,0 -0.01,0 -0.01,0 z m 2.8354,0.082 c -0.369,0 -0.6738,0.3048 -0.6738,0.6738 0,0.369 0.3048,0.6738 0.6738,0.6738 0.369,0 0.6738,-0.3048 0.6738,-0.6738 0,-0.369 -0.3048,-0.6738 -0.6738,-0.6738 z m -5.0811,0.1682 c 0.2308,0.046 0.4008,0.247 0.4008,0.4927 0,0.2623 -0.1936,0.4732 -0.4479,0.4999 -0.01,-0.1088 -0.015,-0.2184 -0.015,-0.3285 0,-0.2236 0.021,-0.4459 0.062,-0.6641 z m 5.0811,0.361 c 0.083,0 0.1447,0.062 0.1447,0.1446 0,0.083 -0.062,0.1446 -0.1447,0.1446 -0.083,0 -0.1446,-0.062 -0.1446,-0.1446 0,-0.083 0.062,-0.1446 0.1446,-0.1446 z m -1.3429,0.571 c -0.1464,0 -0.2659,0.1256 -0.2659,0.2728 0,0.1495 0.1233,0.273 0.2728,0.273 0.1495,0 0.273,-0.1235 0.273,-0.273 0,-0.1495 -0.1235,-0.2728 -0.273,-0.2728 0,0 0,-10e-5 -0.01,0 z m -1.4339,0.4337 c -0.5029,0 -0.9162,0.4133 -0.9162,0.9162 0,0.5029 0.4133,0.9162 0.9162,0.9162 0.5028,0 0.9161,-0.4133 0.9161,-0.9162 0,-0.5029 -0.4133,-0.9162 -0.9161,-0.9162 z m 0,0.5292 c 0.2168,0 0.387,0.1701 0.387,0.387 0,0.2169 -0.1702,0.387 -0.387,0.387 -0.2169,0 -0.387,-0.1701 -0.387,-0.387 0,-0.2169 0.1701,-0.387 0.387,-0.387 z m 2.9893,0.7829 v 0 c 0.3036,10e-5 0.5788,0.1677 0.7139,0.4308 a 0.26460876,0.26460876 0 0 0 0.3502,0.1174 c 0.057,-0.027 0.1192,-0.042 0.1826,-0.042 0,0 0.01,2e-4 0.014,3e-4 0.018,0 0.037,0.01 0.055,0.01 0.1976,0.031 0.3416,0.195 0.3418,0.3938 -10e-5,0.025 0,0.049 -0.01,0.074 a 0.26460876,0.26460876 0 0 0 0.2266,0.3138 c 0.1802,0.023 0.3069,0.1608 0.3069,0.3291 0,0.183 -0.1489,0.3324 -0.3556,0.3324 h -2.6546 c -0.1662,0 -0.2947,-0.096 -0.3387,-0.2295 a 0.2645823,0.2645823 0 0 0 0,-0.01 c -0.01,-0.03 -0.014,-0.062 -0.014,-0.095 0,-0.1459 0.095,-0.2672 0.2379,-0.3136 a 0.26460876,0.26460876 0 0 0 0.173,-0.3232 c -0.019,-0.067 -0.028,-0.1353 -0.028,-0.2044 0,-0.4323 0.3523,-0.7814 0.7992,-0.7814 z" fill="#000000" stroke-width="0.00430604" stroke-linecap="round" stroke-linejoin="round"/></g><text x="0" y="25.583334" fill="#000000" font-size="5px" font-weight="bold" font-family="'Helvetica Neue', Helvetica, Arial-Unicode, Arial, Sans-serif">Created by Alzam</text><text x="0" y="30.583334" fill="#000000" font-size="5px" font-weight="bold" font-family="'Helvetica Neue', Helvetica, Arial-Unicode, Arial, Sans-serif">from the Noun Project</text></svg>