<svg xmlns="http://www.w3.org/2000/svg" viewBox="0 0 24 30" x="0px" y="0px"><title>night, moon, weather, half moon, stars, haw weather, moon and stars, nature, astronomy, shine,</title><g data-name="Layer 2"><path d="M12,22.75a10.7761,10.7761,0,0,0,9.39453-5.52441.74957.74957,0,1,0-1.30859-.73145A9.25034,9.25034,0,1,1,7.42773,3.95947a11.75937,11.75937,0,0,0,8.542,13.39649.74971.74971,0,1,0,.38476-1.44922A10.26109,10.26109,0,0,1,9.24414,2.84961a.75039.75039,0,0,0-.97461-.93311A10.7509,10.7509,0,0,0,12,22.75Z"/><path d="M23.18555,4.75928A1.1107,1.1107,0,0,0,22.125,4.00781H20.752L20.03223,2.3291a1.12334,1.12334,0,0,0-2.06446,0l-.71972,1.67871H15.875a1.12428,1.12428,0,0,0-.70312,2.00147l1.21875.97363-.57715,1.91992a1.12371,1.12371,0,0,0,1.751,1.22168L19,9.04785,20.43555,10.124a1.12379,1.12379,0,0,0,1.751-1.22168l-.57714-1.91943,1.21875-.97412A1.111,1.111,0,0,0,23.18555,4.75928ZM20.47363,5.9707a1.12512,1.12512,0,0,0-.374,1.2002l.32129,1.06738-.7461-.55957a1.1309,1.1309,0,0,0-1.3496,0l-.7461.55957L17.90137,7.167a1.12415,1.12415,0,0,0-.376-1.19726l-.57812-.46192h.54882a1.1216,1.1216,0,0,0,1.03321-.68115L19,3.72754l.4707,1.09814a1.121,1.121,0,0,0,1.03321.68213h.54882Z"/></g><text x="0" y="39" fill="#000000" font-size="5px" font-weight="bold" font-family="'Helvetica Neue', Helvetica, Arial-Unicode, Arial, Sans-serif">Created by Anggara Putra</text><text x="0" y="44" fill="#000000" font-size="5px" font-weight="bold" font-family="'Helvetica Neue', Helvetica, Arial-Unicode, Arial, Sans-serif">from the Noun Project</text></svg>